<?xml version="1.0" encoding="iso-8859-1"?>
<!-- Generator: Adobe Illustrator 19.0.0, SVG Export Plug-In . SVG Version: 6.00 Build 0)  -->
<svg version="1.1" id="Capa_1" xmlns="http://www.w3.org/2000/svg" xmlns:xlink="http://www.w3.org/1999/xlink" x="0px" y="0px"
	 viewBox="0 0 512 512" style="enable-background:new 0 0 512 512;" xml:space="preserve">
<g>
	<path style="fill:#D8AD8F;" d="M433.221,168.377c0,0,62.582,4.771,76.694,73.744c14.112,68.973-47.613,32.211-58.688-12.834
		C440.153,184.242,433.221,168.377,433.221,168.377z"/>
	<path style="fill:#D8AD8F;" d="M66.441,261.935l24.467,53.594c1.082,2.37,4.239,2.854,5.981,0.918l3.488-3.876l15.935,20.641
		c1.837,2.38,5.607,1.611,6.366-1.298l18.242-69.978L66.441,261.935L66.441,261.935z"/>
	<path style="fill:#D8AD8F;" d="M406.475,242.733v178.435c0,8.047-6.511,14.558-14.558,14.558h-18.02
		c-8.047,0-14.558-6.511-14.558-14.558V242.733H406.475z"/>
</g>
<path style="fill:#FF8383;" d="M325.202,318.157c0,0,9.494,53.887,74.794,43.43v-43.43H325.202z"/>
<path style="fill:#D8AD8F;" d="M206.537,241.269v178.447c0,8.035-6.511,14.558-14.558,14.558h-18.02
	c-8.047,0-14.558-6.523-14.558-14.558V241.269H206.537z"/>
<path style="fill:#F9E8D4;" d="M475.231,246.439c0,45.24-36.662,81.903-81.903,81.903h-98.071
	c-53.122,0-100.775-23.395-133.226-60.442c-27.263-31.141-43.795-71.931-43.795-116.579v-7.788l35.144-23.125
	c16.241,5.209,37.234,19.049,72.15,26.296c21.502,4.471,48.287,6.436,82.495,2.35c21.898-2.62,41.487-4.065,58.872-4.065
	C441.387,144.988,475.231,171.565,475.231,246.439z"/>
<g>
	<path style="fill:#EFCDB1;" d="M475.233,246.441c0,45.236-36.665,81.9-81.9,81.9h-98.074c-53.127,0-100.773-23.396-133.224-60.441
		c-5.367-6.13-10.323-12.64-14.814-19.481c1.205,1.483,2.442,2.936,3.698,4.368c32.451,37.056,80.097,60.452,133.224,60.452h98.064
		c45.246,0,81.911-36.665,81.911-81.911c0-25.734-4.007-45.771-12.28-60.977C467.672,186.453,475.233,211.054,475.233,246.441z"/>
	<path style="fill:#EFCDB1;" d="M234.327,214.143c-3.65,27.471-17.51,35.113-25.454,37.224c-2.298,0.603-4.679,0.915-7.081,0.915
		c-9.961,0-19.766-5.147-28.802-15.014l-2.589,10.658c-1.705,7.081-4.565,13.829-8.37,19.974
		c-27.263-31.141-43.795-71.931-43.795-116.579v-7.788l35.144-23.125c16.241,5.209,37.234,19.049,72.15,26.296
		c1.487,4.242,2.839,8.63,4.034,13.122C234.711,179.186,236.406,198.484,234.327,214.143z"/>
</g>
<g>
	<path style="fill:#F9E8D4;" d="M243.163,289.591V438.48c0,8.047-6.511,14.558-14.558,14.558h-18.02
		c-8.047,0-14.558-6.511-14.558-14.558V279.511L243.163,289.591z"/>
	<path style="fill:#F9E8D4;" d="M436.493,273.546v162.228c0,8.035-6.511,14.558-14.558,14.558h-18.02
		c-8.047,0-14.558-6.523-14.558-14.558V296.129L436.493,273.546z"/>
	<path style="fill:#F9E8D4;" d="M204.87,236.291c-8.401,2.235-18.383-5.084-27.2-18.362c-0.457-0.686-0.905-1.393-1.362-2.121
		c-6.259-9.992-11.843-23-15.742-37.65c-9.587-36.059-5.272-68.5,9.618-72.462c3.785-1.019,7.892-0.073,12.082,2.464
		c3.764,2.298,7.58,5.896,11.282,10.575c8.318,10.522,15.992,26.473,20.941,45.095C224.075,199.888,219.77,232.329,204.87,236.291z"
		/>
</g>
<path style="fill:#EFCDB1;" d="M193.682,151.82l-16.013,66.109c-0.457-0.686-0.905-1.393-1.362-2.121
	c-6.259-9.992-11.843-23-15.742-37.65c-9.587-36.059-5.272-68.5,9.618-72.462c3.785-1.019,7.892-0.073,12.082,2.464
	c3.764,2.298,7.58,5.896,11.282,10.575C196.261,129.412,196.365,140.725,193.682,151.82z"/>
<path style="fill:#F9E8D4;" d="M58.262,177.169c-5.365,23.644-15.222,43.203-25.589,53.07c-5.584,5.334-11.323,7.829-16.595,6.634
	c-8.921-2.028-14.474-14.224-15.773-31.401c-0.905-11.76,0.187-25.87,3.546-40.655c2.069-9.129,4.814-17.655,7.996-25.246
	c9.503-22.657,22.927-37.016,34.188-34.468c3.816,0.873,7.018,3.608,9.545,7.798C62.952,125.201,64.428,150.042,58.262,177.169z"/>
<path style="fill:#EFCDB1;" d="M55.58,112.901c7.372,12.301,8.848,37.141,2.683,64.268c-5.365,23.644-15.222,43.203-25.589,53.07
	l-10.938-45.147l-8.058-33.283c-0.977-4.066-1.591-8.152-1.83-12.238c9.503-22.657,22.927-37.016,34.188-34.468
	C49.85,105.976,53.053,108.711,55.58,112.901z"/>
<path style="fill:#F9E8D4;" d="M178.528,148.14l-23.282,96.117c-2.885,11.899-9.643,22.046-18.76,29.206
	c-9.107,7.16-20.563,11.353-32.801,11.353c-3.997,0-7.912-0.443-11.682-1.298c-19.357-4.358-35.068-19.347-39.889-39.261
	l-15.226-62.842l-8.057-33.275c-2.153-8.87-1.937-17.658,0.175-25.786c5.821-22.427,26.167-39.765,51.396-39.765h46.565
	c24.24,0,43.979,16.019,50.644,37.18C180.403,128.587,180.907,138.312,178.528,148.14z"/>
<g>
	<path style="fill:#EFCDB1;" d="M82.802,128.257c-7.304,4.286-15.051,6.459-23.025,6.459c-8.293,0-16.463-2.38-24.292-7.067
		c-2.462-1.473-4.636-3.266-6.48-5.295c5.821-22.427,26.167-39.765,51.396-39.765h11.518l3.791,11.755
		C99.914,107.396,94.608,121.334,82.802,128.257z"/>
	<path style="fill:#EFCDB1;" d="M177.611,119.768c-2.349,3.369-5.439,6.284-9.2,8.489c-7.304,4.286-15.051,6.459-23.025,6.459
		c-8.293,0-16.462-2.38-24.282-7.067c-11.559-6.923-16.72-20.779-12.558-33.698l3.667-11.363h14.752
		C151.207,82.589,170.946,98.608,177.611,119.768z"/>
</g>
<g>
	<path style="fill:#B4732D;" d="M37.642,98.694l10.106-31.349c3.603-11.177,19.416-11.177,23.019,0L81,99.087
		c1.946,6.038-0.542,12.63-6.014,15.839c-7.217,4.232-18.369,7.365-31.556-0.534C38.075,111.185,35.727,104.634,37.642,98.694z"/>
	<path style="fill:#B4732D;" d="M123.253,98.694l10.106-31.349c3.603-11.177,19.416-11.177,23.019,0l10.233,31.742
		c1.946,6.038-0.542,12.63-6.014,15.839c-7.217,4.232-18.369,7.365-31.556-0.534C123.687,111.185,121.338,104.634,123.253,98.694z"
		/>
	<path style="fill:#B4732D;" d="M73.681,187.651c-4.267,0-7.726-3.459-7.726-7.726v-0.946c0-4.267,3.459-7.726,7.726-7.726
		s7.726,3.459,7.726,7.726v0.946C81.408,184.192,77.948,187.651,73.681,187.651z"/>
	<path style="fill:#B4732D;" d="M133.68,187.651c-4.267,0-7.726-3.459-7.726-7.726v-0.946c0-4.267,3.459-7.726,7.726-7.726
		s7.726,3.459,7.726,7.726v0.946C141.406,184.192,137.947,187.651,133.68,187.651z"/>
</g>
<g>
</g>
<g>
</g>
<g>
</g>
<g>
</g>
<g>
</g>
<g>
</g>
<g>
</g>
<g>
</g>
<g>
</g>
<g>
</g>
<g>
</g>
<g>
</g>
<g>
</g>
<g>
</g>
<g>
</g>
</svg>
