<?xml version="1.0" encoding="iso-8859-1"?>
<!-- Generator: Adobe Illustrator 19.0.0, SVG Export Plug-In . SVG Version: 6.00 Build 0)  -->
<svg version="1.1" id="Capa_1" xmlns="http://www.w3.org/2000/svg" xmlns:xlink="http://www.w3.org/1999/xlink" x="0px" y="0px"
	 viewBox="0 0 508.444 508.444" style="enable-background:new 0 0 508.444 508.444;" xml:space="preserve">
<g transform="matrix(1.25 0 0 -1.25 0 45)">
	<g>
		<g>
			<path style="fill:#FFAC33;" d="M136.34,17.022c51.701,2.981,89.02-18.17,92.035-77.665c2.446-47.673-58.971-77.255-91.546-78.268
				c-28.012-0.876-15.394,21.083,6.94,26.567c17.931,4.403,46.911,27.443,40.983,50.517c-6.793,26.396-49.095,30.538-72.26-3.322
				C103.413-78.426,72.067-75.07,65.9-60.21C55-33.951,79.667,13.757,136.34,17.022"/>
			<path style="fill:#E1E8ED;" d="M406.756-185.753c0,88.553-51.143,129.786-165.194,129.786c-12.356,0-23.7-0.58-34.338-1.559
				c-15.474,27.568-55.125,32.176-93.446,32.176C64.808-25.349,0-95.265,0-148.673c0-52.44,41.028-55.364,88.872-55.455
				c2.651-36.921,13.949-64.25,36.966-82.603c3.152-13.084,17.454-65.32,44.828-65.32c15.394,0,23.882,19.285,28.558,38.878
				c12.834-1.547,26.84-2.378,42.337-2.378c19.718,0,37.422,1.32,53.43,3.812c1.024-18.853,6.042-40.311,23.586-40.311
				c26.362,0,48.617,56.388,55,74.183C395.981-256.591,406.756-226.144,406.756-185.753"/>
			<path style="fill:#292F33;" d="M68.267-122.106c0-9.421-7.634-17.067-17.067-17.067s-17.067,7.646-17.067,17.067
				c0,9.432,7.634,17.067,17.067,17.067S68.267-112.673,68.267-122.106"/>
			<path style="fill:#FFCC4D;" d="M199.828,8.181c49.061-16.555,65.308-47.195,45.898-103.526
				c-15.553-45.124-83.57-49.618-114.165-38.4c-26.317,9.66-6.394,25.304,16.361,22.05c18.273-2.617,53.783,7.942,56.878,31.551
				c3.561,27.022-34.133,46.672-68.255,23.916c-13.392-8.932-65.707-4.892-62.589,10.9C81.215-8.635,146.045,26.329,199.828,8.181"
				/>
		</g>
	</g>
</g>
<g>
</g>
<g>
</g>
<g>
</g>
<g>
</g>
<g>
</g>
<g>
</g>
<g>
</g>
<g>
</g>
<g>
</g>
<g>
</g>
<g>
</g>
<g>
</g>
<g>
</g>
<g>
</g>
<g>
</g>
</svg>
